<svg xmlns="http://www.w3.org/2000/svg" width="100" height="29" fill="none"><path fill="#E5E5E5" d="M0 0h100v29H0z"/><path fill="#CDCDCD" d="M-2459-1059c0-1.1.9-2 2-2h4824c1.1 0 2 .9 2 2v19305c0 1.1-.9 2-2 2h-4824c-1.1 0-2-.9-2-2V-1059Z"/><path fill="#fff" d="M-359-961H841V187H-359z"/><rect width="100" height="29" fill="#FF3055" rx="14.5"/><path stroke="#fff" stroke-width="1.5" d="M46 14.75 48.819 17 54 12.5"/><path fill="#000" fill-opacity=".1" d="M-2457-1060h4824v-2h-4824v2Zm4825 1v19305h2V-1059h-2Zm-1 19306h-4824v2h4824v-2Zm-4825-1V-1059h-2v19305h2Zm1 1c-.55 0-1-.4-1-1h-2c0 1.7 1.34 3 3 3v-2Zm4825-1c0 .6-.45 1-1 1v2c1.66 0 3-1.3 3-3h-2Zm-1-19306c.55 0 1 .45 1 1h2c0-1.66-1.34-3-3-3v2Zm-4824-2c-1.66 0-3 1.34-3 3h2c0-.55.45-1 1-1v-2Z"/></svg>